<svg xmlns="http://www.w3.org/2000/svg" width="20" height="18.595" viewBox="0 0 20 18.595">
  <g id="like" transform="translate(0 -1.826)">
    <path id="Path_3" data-name="Path 3" d="M19.967,7.371c-.292-3.213-2.566-5.545-5.413-5.545a5.38,5.38,0,0,0-4.61,2.656,5.185,5.185,0,0,0-4.5-2.656C2.6,1.826.325,4.157.034,7.371A5.717,5.717,0,0,0,.2,9.478,9.038,9.038,0,0,0,2.973,14.1L9.94,20.421,17.028,14.1A9.039,9.039,0,0,0,19.8,9.478,5.73,5.73,0,0,0,19.967,7.371ZM19.048,9.3a8.266,8.266,0,0,1-2.535,4.225l-6.568,5.86L3.49,13.528A8.271,8.271,0,0,1,.953,9.3a5,5,0,0,1-.16-1.808L.8,7.454C1.048,4.639,3,2.6,5.446,2.6A4.509,4.509,0,0,1,9.589,5.486l.354.84.354-.84A4.647,4.647,0,0,1,14.555,2.6c2.443,0,4.4,2.044,4.653,4.9A4.99,4.99,0,0,1,19.048,9.3Z" transform="translate(0)"/>
  </g>
</svg>
