<svg id="pause-symbol" xmlns="http://www.w3.org/2000/svg" width="7.667" height="7.667" viewBox="0 0 7.667 7.667">
  <g id="Group_2" data-name="Group 2" transform="translate(0)">
    <path id="Path_2" data-name="Path 2" d="M2.876,0H.321A.307.307,0,0,0,.1.095.307.307,0,0,0,0,.319V7.348A.307.307,0,0,0,.1,7.573a.307.307,0,0,0,.225.095H2.876a.324.324,0,0,0,.319-.32V.319A.307.307,0,0,0,3.1.095.307.307,0,0,0,2.876,0Z" transform="translate(-0.001 0)" fill="#fff"/>
    <path id="Path_3" data-name="Path 3" d="M258.907.095A.307.307,0,0,0,258.682,0h-2.556a.307.307,0,0,0-.225.095.307.307,0,0,0-.095.225V7.348a.324.324,0,0,0,.32.32h2.556a.324.324,0,0,0,.319-.32V.319A.307.307,0,0,0,258.907.095Z" transform="translate(-251.334 0)" fill="#fff"/>
  </g>
</svg>
